<svg xmlns="http://www.w3.org/2000/svg" viewBox="0 0 1600 1100" width="1600" height="1100" font-family="Inter, system-ui, sans-serif">
<defs>
<linearGradient id="bg" x1="0" y1="0" x2="1" y2="1">
  <stop offset="0%" stop-color="#F8FAFC"/>
  <stop offset="100%" stop-color="#E2E8F0"/>
</linearGradient>
<filter id="shadow" x="-20%" y="-20%" width="140%" height="140%">
  <feGaussianBlur in="SourceAlpha" stdDeviation="3"/>
  <feOffset dx="0" dy="2"/>
  <feComponentTransfer><feFuncA type="linear" slope="0.25"/></feComponentTransfer>
  <feMerge><feMergeNode/><feMergeNode in="SourceGraphic"/></feMerge>
</filter>
</defs>
<rect width="1600" height="1100" fill="url(#bg)"/>
<text x="800" y="60" text-anchor="middle" font-size="32" font-weight="800" fill="#0F172A">🏭 Industry Applications of AI Agents</text>
<text x="800" y="92" text-anchor="middle" font-size="16" fill="#475569">Where the 5,080 indexed agents are being deployed across industries</text>
<rect x="690" y="505" width="220" height="90" rx="14" fill="#fff" stroke="#10B981" stroke-width="3" filter="url(#shadow)"/>
<text x="800" y="538" text-anchor="middle" font-size="18" font-weight="800" fill="#0F172A">🏭 Industry</text>
<text x="800" y="560" text-anchor="middle" font-size="16" font-weight="700" fill="#0F172A">Applications of</text>
<text x="800" y="580" text-anchor="middle" font-size="16" font-weight="700" fill="#0F172A">AI Agents</text>
<path d="M 910 550 C 1030 550 1040 150.0 1150 150.0" stroke="#EAB308" stroke-width="2" fill="none" opacity="0.65"/>
<rect x="1150" y="128.0" width="200" height="44" rx="22" fill="#fff" stroke="#EAB308" stroke-width="2.5" filter="url(#shadow)"/>
<rect x="1150" y="128.0" width="6" height="44" rx="3" fill="#EAB308"/>
<text x="1250" y="155.0" text-anchor="middle" font-size="15" font-weight="700" fill="#0F172A">⚡ Energy</text>
<line x1="1366" y1="138.0" x2="1396" y2="138.0" stroke="#EAB308" stroke-width="1.5" opacity="0.5"/>
<text x="1402" y="134.0" font-size="11" font-weight="700" fill="#64748B">Description</text>
<text x="1402" y="147.0" font-size="10.5" fill="#334155">AI agents for energy grid management and renewable</text>
<text x="1402" y="159.0" font-size="10.5" fill="#334155">optimization.</text>
<line x1="1366" y1="178.0" x2="1396" y2="178.0" stroke="#EAB308" stroke-width="1.5" opacity="0.5"/>
<text x="1402" y="174.0" font-size="11" font-weight="700" fill="#64748B">Example</text>
<text x="1402" y="188.0" font-size="11" font-weight="600" fill="#0F172A">Energy Demand Forecasting</text>
<path d="M 910 550 C 1030 550 1040 257.5 1150 257.5" stroke="#EC4899" stroke-width="2" fill="none" opacity="0.65"/>
<rect x="1150" y="235.5" width="200" height="44" rx="22" fill="#fff" stroke="#EC4899" stroke-width="2.5" filter="url(#shadow)"/>
<rect x="1150" y="235.5" width="6" height="44" rx="3" fill="#EC4899"/>
<text x="1250" y="262.5" text-anchor="middle" font-size="15" font-weight="700" fill="#0F172A">🎬 Entertainment</text>
<line x1="1366" y1="245.5" x2="1396" y2="245.5" stroke="#EC4899" stroke-width="1.5" opacity="0.5"/>
<text x="1402" y="241.5" font-size="11" font-weight="700" fill="#64748B">Description</text>
<text x="1402" y="254.5" font-size="10.5" fill="#334155">AI for content creation, recommendation systems, and</text>
<text x="1402" y="266.5" font-size="10.5" fill="#334155">personalized media.</text>
<line x1="1366" y1="285.5" x2="1396" y2="285.5" stroke="#EC4899" stroke-width="1.5" opacity="0.5"/>
<text x="1402" y="281.5" font-size="11" font-weight="700" fill="#64748B">Example</text>
<text x="1402" y="295.5" font-size="11" font-weight="600" fill="#0F172A">Content Personalization</text>
<path d="M 910 550 C 1030 550 1040 365.0 1150 365.0" stroke="#8B5CF6" stroke-width="2" fill="none" opacity="0.65"/>
<rect x="1150" y="343.0" width="200" height="44" rx="22" fill="#fff" stroke="#8B5CF6" stroke-width="2.5" filter="url(#shadow)"/>
<rect x="1150" y="343.0" width="6" height="44" rx="3" fill="#8B5CF6"/>
<text x="1250" y="370.0" text-anchor="middle" font-size="15" font-weight="700" fill="#0F172A">⚖️ Legal</text>
<line x1="1366" y1="353.0" x2="1396" y2="353.0" stroke="#8B5CF6" stroke-width="1.5" opacity="0.5"/>
<text x="1402" y="349.0" font-size="11" font-weight="700" fill="#64748B">Description</text>
<text x="1402" y="362.0" font-size="10.5" fill="#334155">AI-powered tools for legal research, document review,</text>
<text x="1402" y="374.0" font-size="10.5" fill="#334155">and contracts.</text>
<line x1="1366" y1="393.0" x2="1396" y2="393.0" stroke="#8B5CF6" stroke-width="1.5" opacity="0.5"/>
<text x="1402" y="389.0" font-size="11" font-weight="700" fill="#64748B">Example</text>
<text x="1402" y="403.0" font-size="11" font-weight="600" fill="#0F172A">Legal Doc Review Assistant</text>
<path d="M 910 550 C 1030 550 1040 472.5 1150 472.5" stroke="#FB7185" stroke-width="2" fill="none" opacity="0.65"/>
<rect x="1150" y="450.5" width="200" height="44" rx="22" fill="#fff" stroke="#FB7185" stroke-width="2.5" filter="url(#shadow)"/>
<rect x="1150" y="450.5" width="6" height="44" rx="3" fill="#FB7185"/>
<text x="1250" y="477.5" text-anchor="middle" font-size="15" font-weight="700" fill="#0F172A">🧑‍💼 Human Resources</text>
<line x1="1366" y1="460.5" x2="1396" y2="460.5" stroke="#FB7185" stroke-width="1.5" opacity="0.5"/>
<text x="1402" y="456.5" font-size="11" font-weight="700" fill="#64748B">Description</text>
<text x="1402" y="469.5" font-size="10.5" fill="#334155">AI for talent acquisition, employee training, and</text>
<text x="1402" y="481.5" font-size="10.5" fill="#334155">workforce management.</text>
<line x1="1366" y1="500.5" x2="1396" y2="500.5" stroke="#FB7185" stroke-width="1.5" opacity="0.5"/>
<text x="1402" y="496.5" font-size="11" font-weight="700" fill="#64748B">Example</text>
<text x="1402" y="510.5" font-size="11" font-weight="600" fill="#0F172A">Recruitment Recommendation</text>
<path d="M 910 550 C 1030 550 1040 580.0 1150 580.0" stroke="#14B8A6" stroke-width="2" fill="none" opacity="0.65"/>
<rect x="1150" y="558.0" width="200" height="44" rx="22" fill="#fff" stroke="#14B8A6" stroke-width="2.5" filter="url(#shadow)"/>
<rect x="1150" y="558.0" width="6" height="44" rx="3" fill="#14B8A6"/>
<text x="1250" y="585.0" text-anchor="middle" font-size="15" font-weight="700" fill="#0F172A">✈️ Hospitality</text>
<line x1="1366" y1="568.0" x2="1396" y2="568.0" stroke="#14B8A6" stroke-width="1.5" opacity="0.5"/>
<text x="1402" y="564.0" font-size="11" font-weight="700" fill="#64748B">Description</text>
<text x="1402" y="577.0" font-size="10.5" fill="#334155">AI agents for booking management, travel suggestions,</text>
<text x="1402" y="589.0" font-size="10.5" fill="#334155">customer experience.</text>
<line x1="1366" y1="608.0" x2="1396" y2="608.0" stroke="#14B8A6" stroke-width="1.5" opacity="0.5"/>
<text x="1402" y="604.0" font-size="11" font-weight="700" fill="#64748B">Example</text>
<text x="1402" y="618.0" font-size="11" font-weight="600" fill="#0F172A">Virtual Travel Assistant</text>
<path d="M 910 550 C 1030 550 1040 687.5 1150 687.5" stroke="#22D3EE" stroke-width="2" fill="none" opacity="0.65"/>
<rect x="1150" y="665.5" width="200" height="44" rx="22" fill="#fff" stroke="#22D3EE" stroke-width="2.5" filter="url(#shadow)"/>
<rect x="1150" y="665.5" width="6" height="44" rx="3" fill="#22D3EE"/>
<text x="1250" y="692.5" text-anchor="middle" font-size="15" font-weight="700" fill="#0F172A">🎮 Gaming</text>
<line x1="1366" y1="675.5" x2="1396" y2="675.5" stroke="#22D3EE" stroke-width="1.5" opacity="0.5"/>
<text x="1402" y="671.5" font-size="11" font-weight="700" fill="#64748B">Description</text>
<text x="1402" y="684.5" font-size="10.5" fill="#334155">AI for NPC behaviour, game design, and real-time</text>
<text x="1402" y="696.5" font-size="10.5" fill="#334155">player assistance.</text>
<line x1="1366" y1="715.5" x2="1396" y2="715.5" stroke="#22D3EE" stroke-width="1.5" opacity="0.5"/>
<text x="1402" y="711.5" font-size="11" font-weight="700" fill="#64748B">Example</text>
<text x="1402" y="725.5" font-size="11" font-weight="600" fill="#0F172A">AI Game Companion Agent</text>
<path d="M 910 550 C 1030 550 1040 795.0 1150 795.0" stroke="#DC2626" stroke-width="2" fill="none" opacity="0.65"/>
<rect x="1150" y="773.0" width="200" height="44" rx="22" fill="#fff" stroke="#DC2626" stroke-width="2.5" filter="url(#shadow)"/>
<rect x="1150" y="773.0" width="6" height="44" rx="3" fill="#DC2626"/>
<text x="1250" y="800.0" text-anchor="middle" font-size="15" font-weight="700" fill="#0F172A">🔒 Cybersecurity</text>
<line x1="1366" y1="783.0" x2="1396" y2="783.0" stroke="#DC2626" stroke-width="1.5" opacity="0.5"/>
<text x="1402" y="779.0" font-size="11" font-weight="700" fill="#64748B">Description</text>
<text x="1402" y="792.0" font-size="10.5" fill="#334155">AI agents for threat detection, incident response,</text>
<text x="1402" y="804.0" font-size="10.5" fill="#334155">vulnerability mgmt.</text>
<line x1="1366" y1="823.0" x2="1396" y2="823.0" stroke="#DC2626" stroke-width="1.5" opacity="0.5"/>
<text x="1402" y="819.0" font-size="11" font-weight="700" fill="#64748B">Example</text>
<text x="1402" y="833.0" font-size="11" font-weight="600" fill="#0F172A">Real-Time Threat Detection</text>
<path d="M 910 550 C 1030 550 1040 902.5 1150 902.5" stroke="#0EA5E9" stroke-width="2" fill="none" opacity="0.65"/>
<rect x="1150" y="880.5" width="200" height="44" rx="22" fill="#fff" stroke="#0EA5E9" stroke-width="2.5" filter="url(#shadow)"/>
<rect x="1150" y="880.5" width="6" height="44" rx="3" fill="#0EA5E9"/>
<text x="1250" y="907.5" text-anchor="middle" font-size="15" font-weight="700" fill="#0F172A">🛒 E-commerce</text>
<line x1="1366" y1="890.5" x2="1396" y2="890.5" stroke="#0EA5E9" stroke-width="1.5" opacity="0.5"/>
<text x="1402" y="886.5" font-size="11" font-weight="700" fill="#64748B">Description</text>
<text x="1402" y="899.5" font-size="10.5" fill="#334155">AI for dynamic pricing, product recommendations, and</text>
<text x="1402" y="911.5" font-size="10.5" fill="#334155">customer insights.</text>
<line x1="1366" y1="930.5" x2="1396" y2="930.5" stroke="#0EA5E9" stroke-width="1.5" opacity="0.5"/>
<text x="1402" y="926.5" font-size="11" font-weight="700" fill="#64748B">Example</text>
<text x="1402" y="940.5" font-size="11" font-weight="600" fill="#0F172A">Personal Shopper Agent</text>
<path d="M 910 550 C 1030 550 1040 1010.0 1150 1010.0" stroke="#7C3AED" stroke-width="2" fill="none" opacity="0.65"/>
<rect x="1150" y="988.0" width="200" height="44" rx="22" fill="#fff" stroke="#7C3AED" stroke-width="2.5" filter="url(#shadow)"/>
<rect x="1150" y="988.0" width="6" height="44" rx="3" fill="#7C3AED"/>
<text x="1250" y="1015.0" text-anchor="middle" font-size="15" font-weight="700" fill="#0F172A">📦 Supply Chain</text>
<line x1="1366" y1="998.0" x2="1396" y2="998.0" stroke="#7C3AED" stroke-width="1.5" opacity="0.5"/>
<text x="1402" y="994.0" font-size="11" font-weight="700" fill="#64748B">Description</text>
<text x="1402" y="1007.0" font-size="10.5" fill="#334155">AI for inventory optimization, demand forecasting, and</text>
<text x="1402" y="1019.0" font-size="10.5" fill="#334155">route planning.</text>
<line x1="1366" y1="1038.0" x2="1396" y2="1038.0" stroke="#7C3AED" stroke-width="1.5" opacity="0.5"/>
<text x="1402" y="1034.0" font-size="11" font-weight="700" fill="#64748B">Example</text>
<text x="1402" y="1048.0" font-size="11" font-weight="600" fill="#0F172A">Logistics Optimization Agent</text>
<path d="M 690 550 C 570 550 560 150.0 450 150.0" stroke="#EF4444" stroke-width="2" fill="none" opacity="0.65"/>
<rect x="250" y="128.0" width="200" height="44" rx="22" fill="#fff" stroke="#EF4444" stroke-width="2.5" filter="url(#shadow)"/>
<rect x="444" y="128.0" width="6" height="44" rx="3" fill="#EF4444"/>
<text x="350" y="155.0" text-anchor="middle" font-size="15" font-weight="700" fill="#0F172A">🏥 Healthcare</text>
<line x1="214" y1="138.0" x2="244" y2="138.0" stroke="#EF4444" stroke-width="1.5" opacity="0.5"/>
<text x="208" y="134.0" text-anchor="end" font-size="11" font-weight="700" fill="#64748B">Description</text>
<text x="208" y="147.0" text-anchor="end" font-size="10.5" fill="#334155">AI agents for medical diagnosis, patient care, and</text>
<text x="208" y="159.0" text-anchor="end" font-size="10.5" fill="#334155">health monitoring.</text>
<line x1="214" y1="178.0" x2="244" y2="178.0" stroke="#EF4444" stroke-width="1.5" opacity="0.5"/>
<text x="208" y="174.0" text-anchor="end" font-size="11" font-weight="700" fill="#64748B">Example</text>
<text x="208" y="188.0" text-anchor="end" font-size="11" font-weight="600" fill="#0F172A">AI Health Assistant</text>
<path d="M 690 550 C 570 550 560 257.5 450 257.5" stroke="#10B981" stroke-width="2" fill="none" opacity="0.65"/>
<rect x="250" y="235.5" width="200" height="44" rx="22" fill="#fff" stroke="#10B981" stroke-width="2.5" filter="url(#shadow)"/>
<rect x="444" y="235.5" width="6" height="44" rx="3" fill="#10B981"/>
<text x="350" y="262.5" text-anchor="middle" font-size="15" font-weight="700" fill="#0F172A">💰 Finance</text>
<line x1="214" y1="245.5" x2="244" y2="245.5" stroke="#10B981" stroke-width="1.5" opacity="0.5"/>
<text x="208" y="241.5" text-anchor="end" font-size="11" font-weight="700" fill="#64748B">Description</text>
<text x="208" y="254.5" text-anchor="end" font-size="10.5" fill="#334155">AI for trading, fraud detection, and automated</text>
<text x="208" y="266.5" text-anchor="end" font-size="10.5" fill="#334155">financial advising.</text>
<line x1="214" y1="285.5" x2="244" y2="285.5" stroke="#10B981" stroke-width="1.5" opacity="0.5"/>
<text x="208" y="281.5" text-anchor="end" font-size="11" font-weight="700" fill="#64748B">Example</text>
<text x="208" y="295.5" text-anchor="end" font-size="11" font-weight="600" fill="#0F172A">Automated Trading Bot</text>
<path d="M 690 550 C 570 550 560 365.0 450 365.0" stroke="#3B82F6" stroke-width="2" fill="none" opacity="0.65"/>
<rect x="250" y="343.0" width="200" height="44" rx="22" fill="#fff" stroke="#3B82F6" stroke-width="2.5" filter="url(#shadow)"/>
<rect x="444" y="343.0" width="6" height="44" rx="3" fill="#3B82F6"/>
<text x="350" y="370.0" text-anchor="middle" font-size="15" font-weight="700" fill="#0F172A">🎓 Education</text>
<line x1="214" y1="353.0" x2="244" y2="353.0" stroke="#3B82F6" stroke-width="1.5" opacity="0.5"/>
<text x="208" y="349.0" text-anchor="end" font-size="11" font-weight="700" fill="#64748B">Description</text>
<text x="208" y="362.0" text-anchor="end" font-size="10.5" fill="#334155">Personalized learning experiences and virtual tutors</text>
<text x="208" y="374.0" text-anchor="end" font-size="10.5" fill="#334155">powered by AI.</text>
<line x1="214" y1="393.0" x2="244" y2="393.0" stroke="#3B82F6" stroke-width="1.5" opacity="0.5"/>
<text x="208" y="389.0" text-anchor="end" font-size="11" font-weight="700" fill="#64748B">Example</text>
<text x="208" y="403.0" text-anchor="end" font-size="11" font-weight="600" fill="#0F172A">Virtual AI Tutor</text>
<path d="M 690 550 C 570 550 560 472.5 450 472.5" stroke="#06B6D4" stroke-width="2" fill="none" opacity="0.65"/>
<rect x="250" y="450.5" width="200" height="44" rx="22" fill="#fff" stroke="#06B6D4" stroke-width="2.5" filter="url(#shadow)"/>
<rect x="444" y="450.5" width="6" height="44" rx="3" fill="#06B6D4"/>
<text x="350" y="477.5" text-anchor="middle" font-size="15" font-weight="700" fill="#0F172A">📞 Customer Service</text>
<line x1="214" y1="460.5" x2="244" y2="460.5" stroke="#06B6D4" stroke-width="1.5" opacity="0.5"/>
<text x="208" y="456.5" text-anchor="end" font-size="11" font-weight="700" fill="#64748B">Description</text>
<text x="208" y="469.5" text-anchor="end" font-size="10.5" fill="#334155">AI chatbots and virtual assistants to handle customer</text>
<text x="208" y="481.5" text-anchor="end" font-size="10.5" fill="#334155">queries.</text>
<line x1="214" y1="500.5" x2="244" y2="500.5" stroke="#06B6D4" stroke-width="1.5" opacity="0.5"/>
<text x="208" y="496.5" text-anchor="end" font-size="11" font-weight="700" fill="#64748B">Example</text>
<text x="208" y="510.5" text-anchor="end" font-size="11" font-weight="600" fill="#0F172A">24/7 AI Chatbot</text>
<path d="M 690 550 C 570 550 560 580.0 450 580.0" stroke="#F59E0B" stroke-width="2" fill="none" opacity="0.65"/>
<rect x="250" y="558.0" width="200" height="44" rx="22" fill="#fff" stroke="#F59E0B" stroke-width="2.5" filter="url(#shadow)"/>
<rect x="444" y="558.0" width="6" height="44" rx="3" fill="#F59E0B"/>
<text x="350" y="585.0" text-anchor="middle" font-size="15" font-weight="700" fill="#0F172A">🛍️ Retail</text>
<line x1="214" y1="568.0" x2="244" y2="568.0" stroke="#F59E0B" stroke-width="1.5" opacity="0.5"/>
<text x="208" y="564.0" text-anchor="end" font-size="11" font-weight="700" fill="#64748B">Description</text>
<text x="208" y="577.0" text-anchor="end" font-size="10.5" fill="#334155">AI for personalized shopping, inventory management,</text>
<text x="208" y="589.0" text-anchor="end" font-size="10.5" fill="#334155">recommendations.</text>
<line x1="214" y1="608.0" x2="244" y2="608.0" stroke="#F59E0B" stroke-width="1.5" opacity="0.5"/>
<text x="208" y="604.0" text-anchor="end" font-size="11" font-weight="700" fill="#64748B">Example</text>
<text x="208" y="618.0" text-anchor="end" font-size="11" font-weight="600" fill="#0F172A">Product Recommendation Agent</text>
<path d="M 690 550 C 570 550 560 687.5 450 687.5" stroke="#A855F7" stroke-width="2" fill="none" opacity="0.65"/>
<rect x="250" y="665.5" width="200" height="44" rx="22" fill="#fff" stroke="#A855F7" stroke-width="2.5" filter="url(#shadow)"/>
<rect x="444" y="665.5" width="6" height="44" rx="3" fill="#A855F7"/>
<text x="350" y="692.5" text-anchor="middle" font-size="15" font-weight="700" fill="#0F172A">🚚 Transportation</text>
<line x1="214" y1="675.5" x2="244" y2="675.5" stroke="#A855F7" stroke-width="1.5" opacity="0.5"/>
<text x="208" y="671.5" text-anchor="end" font-size="11" font-weight="700" fill="#64748B">Description</text>
<text x="208" y="684.5" text-anchor="end" font-size="10.5" fill="#334155">AI agents for route optimization, autonomous driving,</text>
<text x="208" y="696.5" text-anchor="end" font-size="10.5" fill="#334155">and logistics.</text>
<line x1="214" y1="715.5" x2="244" y2="715.5" stroke="#A855F7" stroke-width="1.5" opacity="0.5"/>
<text x="208" y="711.5" text-anchor="end" font-size="11" font-weight="700" fill="#64748B">Example</text>
<text x="208" y="725.5" text-anchor="end" font-size="11" font-weight="600" fill="#0F172A">Self-Driving Delivery Agent</text>
<path d="M 690 550 C 570 550 560 795.0 450 795.0" stroke="#6B7280" stroke-width="2" fill="none" opacity="0.65"/>
<rect x="250" y="773.0" width="200" height="44" rx="22" fill="#fff" stroke="#6B7280" stroke-width="2.5" filter="url(#shadow)"/>
<rect x="444" y="773.0" width="6" height="44" rx="3" fill="#6B7280"/>
<text x="350" y="800.0" text-anchor="middle" font-size="15" font-weight="700" fill="#0F172A">🏭 Manufacturing</text>
<line x1="214" y1="783.0" x2="244" y2="783.0" stroke="#6B7280" stroke-width="1.5" opacity="0.5"/>
<text x="208" y="779.0" text-anchor="end" font-size="11" font-weight="700" fill="#64748B">Description</text>
<text x="208" y="792.0" text-anchor="end" font-size="10.5" fill="#334155">AI agents for predictive maintenance, quality</text>
<text x="208" y="804.0" text-anchor="end" font-size="10.5" fill="#334155">assurance, and robotics.</text>
<line x1="214" y1="823.0" x2="244" y2="823.0" stroke="#6B7280" stroke-width="1.5" opacity="0.5"/>
<text x="208" y="819.0" text-anchor="end" font-size="11" font-weight="700" fill="#64748B">Example</text>
<text x="208" y="833.0" text-anchor="end" font-size="11" font-weight="600" fill="#0F172A">Factory Process Monitoring</text>
<path d="M 690 550 C 570 550 560 902.5 450 902.5" stroke="#F97316" stroke-width="2" fill="none" opacity="0.65"/>
<rect x="250" y="880.5" width="200" height="44" rx="22" fill="#fff" stroke="#F97316" stroke-width="2.5" filter="url(#shadow)"/>
<rect x="444" y="880.5" width="6" height="44" rx="3" fill="#F97316"/>
<text x="350" y="907.5" text-anchor="middle" font-size="15" font-weight="700" fill="#0F172A">🏠 Real Estate</text>
<line x1="214" y1="890.5" x2="244" y2="890.5" stroke="#F97316" stroke-width="1.5" opacity="0.5"/>
<text x="208" y="886.5" text-anchor="end" font-size="11" font-weight="700" fill="#64748B">Description</text>
<text x="208" y="899.5" text-anchor="end" font-size="10.5" fill="#334155">AI-powered assistants for property search, pricing,</text>
<text x="208" y="911.5" text-anchor="end" font-size="10.5" fill="#334155">and virtual tours.</text>
<line x1="214" y1="930.5" x2="244" y2="930.5" stroke="#F97316" stroke-width="1.5" opacity="0.5"/>
<text x="208" y="926.5" text-anchor="end" font-size="11" font-weight="700" fill="#64748B">Example</text>
<text x="208" y="940.5" text-anchor="end" font-size="11" font-weight="600" fill="#0F172A">Property Pricing Agent</text>
<path d="M 690 550 C 570 550 560 1010.0 450 1010.0" stroke="#84CC16" stroke-width="2" fill="none" opacity="0.65"/>
<rect x="250" y="988.0" width="200" height="44" rx="22" fill="#fff" stroke="#84CC16" stroke-width="2.5" filter="url(#shadow)"/>
<rect x="444" y="988.0" width="6" height="44" rx="3" fill="#84CC16"/>
<text x="350" y="1015.0" text-anchor="middle" font-size="15" font-weight="700" fill="#0F172A">🌾 Agriculture</text>
<line x1="214" y1="998.0" x2="244" y2="998.0" stroke="#84CC16" stroke-width="1.5" opacity="0.5"/>
<text x="208" y="994.0" text-anchor="end" font-size="11" font-weight="700" fill="#64748B">Description</text>
<text x="208" y="1007.0" text-anchor="end" font-size="10.5" fill="#334155">AI for precision farming, crop monitoring, and yield</text>
<text x="208" y="1019.0" text-anchor="end" font-size="10.5" fill="#334155">prediction.</text>
<line x1="214" y1="1038.0" x2="244" y2="1038.0" stroke="#84CC16" stroke-width="1.5" opacity="0.5"/>
<text x="208" y="1034.0" text-anchor="end" font-size="11" font-weight="700" fill="#64748B">Example</text>
<text x="208" y="1048.0" text-anchor="end" font-size="11" font-weight="600" fill="#0F172A">Smart Farming Assistant</text>
</svg>